<svg width="622" height="582" viewBox="0 0 622 582" fill="none" xmlns="http://www.w3.org/2000/svg">
<g clip-path="url(#clip0_24_12)">
<path d="M485.447 345.573C446.128 372.565 435.14 400.193 414.181 424.36C392.882 448.545 361.619 469.575 321.701 484.922C282.117 499.944 233.544 509.608 203.484 492.471C173.082 475.352 161.186 431.125 133.764 394.488C106.689 358.14 64.4302 329.363 46.8564 290.664C29.6234 251.946 37.4234 203.593 74.091 180.123C110.425 156.978 175.633 159.023 221.61 139.972C267.593 121.227 294.005 81.4051 327.182 69.7984C360.367 58.4986 400.323 75.7213 430.186 99.3219C460.389 122.904 480.506 153.172 516.965 181.951C553.432 211.037 606.582 238.616 599.335 265.737C592.082 292.551 524.773 318.888 485.447 345.573Z" fill="#117049"/>
</g>
<defs>
<clipPath id="clip0_24_12">
<rect width="541.216" height="584.263" fill="white" transform="translate(621.293 41.5737) rotate(94.0804)"/>
</clipPath>
</defs>
</svg>
