<svg width="165" height="186" viewBox="0 0 165 186" fill="none" xmlns="http://www.w3.org/2000/svg">
<path d="M142.625 31.9511C152.75 47.4113 157.875 62.1049 161.125 76.4152C164.25 90.5977 165.5 104.525 164.125 120.24C162.625 135.956 158.5 153.333 147.75 165.982C137 178.632 119.5 186.553 102.875 185.403C86.2501 184.126 70.5001 173.776 53.5001 163.171C36.5001 152.566 18.1251 141.706 8.50007 124.84C-1.12494 107.974 -1.99993 85.1036 7.75007 69.26C17.5001 53.2887 38.0001 44.6003 55.5001 31.44C73.0001 18.4074 87.5001 1.03063 102.375 0.519551C117.25 0.0084694 132.375 16.3631 142.625 31.9511Z" fill="#F5D95F"/>
</svg>
