<svg width="488" height="554" viewBox="0 0 488 554" fill="none" xmlns="http://www.w3.org/2000/svg">
<path d="M306.35 2.26327C352.873 8.46527 399.558 36.313 435.887 78.0627C471.852 119.906 497.825 175.558 483.88 220.593C470.299 265.534 417.352 300.491 381.304 357.423C345.713 414.625 326.751 494.26 279.543 530.447C232.241 566.272 156.693 558.649 111.182 517.331C65.6699 476.014 50.1946 401.001 33.4757 342.188C16.7569 283.375 -1.75603 240.128 1.11884 198.723C3.53692 157.048 27.1555 116.489 58.2336 88.3348C89.5813 59.7238 128.295 43.1547 170.651 27.1951C213.464 11.505 259.733 -4.30185 306.35 2.26327Z" fill="#04508B"/>
</svg>
