<svg width="404" height="300" viewBox="0 0 404 300" fill="none" xmlns="http://www.w3.org/2000/svg">
<g opacity="0.3">
<path opacity="0.3" d="M278.79 166.612H236C234.485 166.612 233.256 167.842 233.256 169.36V178.477C233.256 179.995 234.485 181.225 236 181.225H278.79C280.305 181.225 281.533 179.995 281.533 178.477V169.36C281.533 167.842 280.305 166.612 278.79 166.612Z" fill="#F2F2F2"/>
<path opacity="0.3" d="M329.312 181.225H286.522C285.007 181.225 283.779 182.455 283.779 183.972V193.09C283.779 194.607 285.007 195.837 286.522 195.837H329.312C330.827 195.837 332.055 194.607 332.055 193.09V183.972C332.055 182.455 330.827 181.225 329.312 181.225Z" fill="#F2F2F2"/>
<path opacity="0.3" d="M379.838 195.84H337.048C335.533 195.84 334.304 197.07 334.304 198.588V207.705C334.304 209.223 335.533 210.453 337.048 210.453H379.838C381.353 210.453 382.581 209.223 382.581 207.705V198.588C382.581 197.07 381.353 195.84 379.838 195.84Z" fill="#F2F2F2"/>
<path opacity="0.3" d="M278.79 144.69H236C234.485 144.69 233.256 145.92 233.256 147.438V156.555C233.256 158.073 234.485 159.303 236 159.303H278.79C280.305 159.303 281.533 158.073 281.533 156.555V147.438C281.533 145.92 280.305 144.69 278.79 144.69Z" fill="#F2F2F2"/>
<path opacity="0.3" d="M329.312 159.306H286.522C285.007 159.306 283.779 160.536 283.779 162.053V171.171C283.779 172.688 285.007 173.918 286.522 173.918H329.312C330.827 173.918 332.055 172.688 332.055 171.171V162.053C332.055 160.536 330.827 159.306 329.312 159.306Z" fill="#F2F2F2"/>
<path opacity="0.3" d="M379.838 173.918H337.048C335.533 173.918 334.304 175.148 334.304 176.666V185.783C334.304 187.301 335.533 188.531 337.048 188.531H379.838C381.353 188.531 382.581 187.301 382.581 185.783V176.666C382.581 175.148 381.353 173.918 379.838 173.918Z" fill="#F2F2F2"/>
<path opacity="0.3" d="M278.79 115.466H236C234.485 115.466 233.256 116.696 233.256 118.213V127.331C233.256 128.848 234.485 130.078 236 130.078H278.79C280.305 130.078 281.533 128.848 281.533 127.331V118.213C281.533 116.696 280.305 115.466 278.79 115.466Z" fill="#F2F2F2"/>
<path opacity="0.3" d="M329.312 130.078H286.522C285.007 130.078 283.779 131.308 283.779 132.826V141.943C283.779 143.461 285.007 144.691 286.522 144.691H329.312C330.827 144.691 332.055 143.461 332.055 141.943V132.826C332.055 131.308 330.827 130.078 329.312 130.078Z" fill="#F2F2F2"/>
<path opacity="0.3" d="M379.838 144.69H337.048C335.533 144.69 334.304 145.92 334.304 147.438V156.555C334.304 158.073 335.533 159.303 337.048 159.303H379.838C381.353 159.303 382.581 158.073 382.581 156.555V147.438C382.581 145.92 381.353 144.69 379.838 144.69Z" fill="#F2F2F2"/>
<path opacity="0.3" d="M278.79 93.5443H236C234.485 93.5443 233.256 94.7743 233.256 96.2915V105.409C233.256 106.926 234.485 108.156 236 108.156H278.79C280.305 108.156 281.533 106.926 281.533 105.409V96.2915C281.533 94.7743 280.305 93.5443 278.79 93.5443Z" fill="#F2F2F2"/>
<path opacity="0.3" d="M329.312 108.156H286.522C285.007 108.156 283.779 109.386 283.779 110.904V120.021C283.779 121.539 285.007 122.769 286.522 122.769H329.312C330.827 122.769 332.055 121.539 332.055 120.021V110.904C332.055 109.386 330.827 108.156 329.312 108.156Z" fill="#F2F2F2"/>
<path opacity="0.3" d="M379.838 122.772H337.048C335.533 122.772 334.304 124.002 334.304 125.519V134.637C334.304 136.154 335.533 137.384 337.048 137.384H379.838C381.353 137.384 382.581 136.154 382.581 134.637V125.519C382.581 124.002 381.353 122.772 379.838 122.772Z" fill="#F2F2F2"/>
<path opacity="0.1" d="M278.79 166.612H236C234.485 166.612 233.256 167.842 233.256 169.36V178.477C233.256 179.995 234.485 181.225 236 181.225H278.79C280.305 181.225 281.533 179.995 281.533 178.477V169.36C281.533 167.842 280.305 166.612 278.79 166.612Z" fill="#B71704"/>
<path opacity="0.1" d="M329.312 181.225H286.522C285.007 181.225 283.779 182.455 283.779 183.972V193.09C283.779 194.607 285.007 195.837 286.522 195.837H329.312C330.827 195.837 332.055 194.607 332.055 193.09V183.972C332.055 182.455 330.827 181.225 329.312 181.225Z" fill="#B71704"/>
<path opacity="0.1" d="M379.838 195.84H337.048C335.533 195.84 334.304 197.07 334.304 198.588V207.705C334.304 209.223 335.533 210.453 337.048 210.453H379.838C381.353 210.453 382.581 209.223 382.581 207.705V198.588C382.581 197.07 381.353 195.84 379.838 195.84Z" fill="#B71704"/>
<path opacity="0.1" d="M278.79 144.69H236C234.485 144.69 233.256 145.92 233.256 147.438V156.555C233.256 158.073 234.485 159.303 236 159.303H278.79C280.305 159.303 281.533 158.073 281.533 156.555V147.438C281.533 145.92 280.305 144.69 278.79 144.69Z" fill="#B71704"/>
<path opacity="0.1" d="M329.312 159.306H286.522C285.007 159.306 283.779 160.536 283.779 162.053V171.171C283.779 172.688 285.007 173.918 286.522 173.918H329.312C330.827 173.918 332.055 172.688 332.055 171.171V162.053C332.055 160.536 330.827 159.306 329.312 159.306Z" fill="#B71704"/>
<path opacity="0.1" d="M379.838 173.918H337.048C335.533 173.918 334.304 175.148 334.304 176.666V185.783C334.304 187.301 335.533 188.531 337.048 188.531H379.838C381.353 188.531 382.581 187.301 382.581 185.783V176.666C382.581 175.148 381.353 173.918 379.838 173.918Z" fill="#B71704"/>
<path opacity="0.1" d="M278.79 115.466H236C234.485 115.466 233.256 116.696 233.256 118.213V127.331C233.256 128.848 234.485 130.078 236 130.078H278.79C280.305 130.078 281.533 128.848 281.533 127.331V118.213C281.533 116.696 280.305 115.466 278.79 115.466Z" fill="#B71704"/>
<path opacity="0.1" d="M329.312 130.078H286.522C285.007 130.078 283.779 131.308 283.779 132.826V141.943C283.779 143.461 285.007 144.691 286.522 144.691H329.312C330.827 144.691 332.055 143.461 332.055 141.943V132.826C332.055 131.308 330.827 130.078 329.312 130.078Z" fill="#B71704"/>
<path opacity="0.1" d="M379.838 144.69H337.048C335.533 144.69 334.304 145.92 334.304 147.438V156.555C334.304 158.073 335.533 159.303 337.048 159.303H379.838C381.353 159.303 382.581 158.073 382.581 156.555V147.438C382.581 145.92 381.353 144.69 379.838 144.69Z" fill="#B71704"/>
<path opacity="0.1" d="M278.79 93.5443H236C234.485 93.5443 233.256 94.7743 233.256 96.2915V105.409C233.256 106.926 234.485 108.156 236 108.156H278.79C280.305 108.156 281.533 106.926 281.533 105.409V96.2915C281.533 94.7743 280.305 93.5443 278.79 93.5443Z" fill="#B71704"/>
<path opacity="0.1" d="M329.312 108.156H286.522C285.007 108.156 283.779 109.386 283.779 110.904V120.021C283.779 121.539 285.007 122.769 286.522 122.769H329.312C330.827 122.769 332.055 121.539 332.055 120.021V110.904C332.055 109.386 330.827 108.156 329.312 108.156Z" fill="#B71704"/>
<path opacity="0.1" d="M379.838 122.772H337.048C335.533 122.772 334.304 124.002 334.304 125.519V134.637C334.304 136.154 335.533 137.384 337.048 137.384H379.838C381.353 137.384 382.581 136.154 382.581 134.637V125.519C382.581 124.002 381.353 122.772 379.838 122.772Z" fill="#B71704"/>
</g>
<g opacity="0.3">
<path opacity="0.3" d="M89.7146 73.0681H46.9253C45.41 73.0681 44.1815 74.2981 44.1815 75.8153V84.9331C44.1815 86.4503 45.41 87.6803 46.9253 87.6803H89.7146C91.23 87.6803 92.4584 86.4503 92.4584 84.9331V75.8153C92.4584 74.2981 91.23 73.0681 89.7146 73.0681Z" fill="#F2F2F2"/>
<path opacity="0.3" d="M140.237 87.6803H97.4475C95.9322 87.6803 94.7037 88.9103 94.7037 90.4275V99.5453C94.7037 101.062 95.9322 102.292 97.4475 102.292H140.237C141.752 102.292 142.981 101.062 142.981 99.5453V90.4275C142.981 88.9103 141.752 87.6803 140.237 87.6803Z" fill="#F2F2F2"/>
<path opacity="0.3" d="M190.763 102.296H147.973C146.458 102.296 145.229 103.526 145.229 105.043V114.161C145.229 115.678 146.458 116.908 147.973 116.908H190.763C192.278 116.908 193.506 115.678 193.506 114.161V105.043C193.506 103.526 192.278 102.296 190.763 102.296Z" fill="#F2F2F2"/>
<path opacity="0.3" d="M89.7146 51.1462H46.9253C45.41 51.1462 44.1815 52.3762 44.1815 53.8934V63.0112C44.1815 64.5284 45.41 65.7584 46.9253 65.7584H89.7146C91.23 65.7584 92.4584 64.5284 92.4584 63.0112V53.8934C92.4584 52.3762 91.23 51.1462 89.7146 51.1462Z" fill="#F2F2F2"/>
<path opacity="0.3" d="M140.237 65.7621H97.4475C95.9322 65.7621 94.7037 66.992 94.7037 68.5093V77.6271C94.7037 79.1443 95.9322 80.3742 97.4475 80.3742H140.237C141.752 80.3742 142.981 79.1443 142.981 77.6271V68.5093C142.981 66.992 141.752 65.7621 140.237 65.7621Z" fill="#F2F2F2"/>
<path opacity="0.3" d="M190.763 80.3741H147.973C146.458 80.3741 145.229 81.6041 145.229 83.1213V92.2391C145.229 93.7563 146.458 94.9863 147.973 94.9863H190.763C192.278 94.9863 193.506 93.7563 193.506 92.2391V83.1213C193.506 81.6041 192.278 80.3741 190.763 80.3741Z" fill="#F2F2F2"/>
<path opacity="0.3" d="M89.7146 21.9219H46.9253C45.41 21.9219 44.1815 23.1518 44.1815 24.669V33.7868C44.1815 35.3041 45.41 36.534 46.9253 36.534H89.7146C91.23 36.534 92.4584 35.3041 92.4584 33.7868V24.669C92.4584 23.1518 91.23 21.9219 89.7146 21.9219Z" fill="#F2F2F2"/>
<path opacity="0.3" d="M140.237 36.5341H97.4475C95.9322 36.5341 94.7037 37.764 94.7037 39.2812V48.399C94.7037 49.9162 95.9322 51.1462 97.4475 51.1462H140.237C141.752 51.1462 142.981 49.9162 142.981 48.399V39.2812C142.981 37.764 141.752 36.5341 140.237 36.5341Z" fill="#F2F2F2"/>
<path opacity="0.3" d="M190.763 51.1462H147.973C146.458 51.1462 145.229 52.3762 145.229 53.8934V63.0112C145.229 64.5284 146.458 65.7584 147.973 65.7584H190.763C192.278 65.7584 193.506 64.5284 193.506 63.0112V53.8934C193.506 52.3762 192.278 51.1462 190.763 51.1462Z" fill="#F2F2F2"/>
<path opacity="0.3" d="M89.7146 0H46.9253C45.41 0 44.1815 1.22995 44.1815 2.74717V11.865C44.1815 13.3822 45.41 14.6121 46.9253 14.6121H89.7146C91.23 14.6121 92.4584 13.3822 92.4584 11.865V2.74717C92.4584 1.22995 91.23 0 89.7146 0Z" fill="#F2F2F2"/>
<path opacity="0.3" d="M140.237 14.6122H97.4475C95.9322 14.6122 94.7037 15.8421 94.7037 17.3594V26.4772C94.7037 27.9944 95.9322 29.2243 97.4475 29.2243H140.237C141.752 29.2243 142.981 27.9944 142.981 26.4772V17.3594C142.981 15.8421 141.752 14.6122 140.237 14.6122Z" fill="#F2F2F2"/>
<path opacity="0.3" d="M190.763 29.228H147.973C146.458 29.228 145.229 30.458 145.229 31.9752V41.093C145.229 42.6102 146.458 43.8402 147.973 43.8402H190.763C192.278 43.8402 193.506 42.6102 193.506 41.093V31.9752C193.506 30.458 192.278 29.228 190.763 29.228Z" fill="#F2F2F2"/>
<path opacity="0.1" d="M89.7146 73.0681H46.9253C45.41 73.0681 44.1815 74.2981 44.1815 75.8153V84.9331C44.1815 86.4503 45.41 87.6803 46.9253 87.6803H89.7146C91.23 87.6803 92.4584 86.4503 92.4584 84.9331V75.8153C92.4584 74.2981 91.23 73.0681 89.7146 73.0681Z" fill="#B71704"/>
<path opacity="0.1" d="M140.237 87.6803H97.4475C95.9322 87.6803 94.7037 88.9103 94.7037 90.4275V99.5453C94.7037 101.062 95.9322 102.292 97.4475 102.292H140.237C141.752 102.292 142.981 101.062 142.981 99.5453V90.4275C142.981 88.9103 141.752 87.6803 140.237 87.6803Z" fill="#B71704"/>
<path opacity="0.1" d="M190.763 102.296H147.973C146.458 102.296 145.229 103.526 145.229 105.043V114.161C145.229 115.678 146.458 116.908 147.973 116.908H190.763C192.278 116.908 193.506 115.678 193.506 114.161V105.043C193.506 103.526 192.278 102.296 190.763 102.296Z" fill="#B71704"/>
<path opacity="0.1" d="M89.7146 51.1462H46.9253C45.41 51.1462 44.1815 52.3762 44.1815 53.8934V63.0112C44.1815 64.5284 45.41 65.7584 46.9253 65.7584H89.7146C91.23 65.7584 92.4584 64.5284 92.4584 63.0112V53.8934C92.4584 52.3762 91.23 51.1462 89.7146 51.1462Z" fill="#B71704"/>
<path opacity="0.1" d="M140.237 65.7621H97.4475C95.9322 65.7621 94.7037 66.992 94.7037 68.5093V77.6271C94.7037 79.1443 95.9322 80.3742 97.4475 80.3742H140.237C141.752 80.3742 142.981 79.1443 142.981 77.6271V68.5093C142.981 66.992 141.752 65.7621 140.237 65.7621Z" fill="#B71704"/>
<path opacity="0.1" d="M190.763 80.3741H147.973C146.458 80.3741 145.229 81.6041 145.229 83.1213V92.2391C145.229 93.7563 146.458 94.9863 147.973 94.9863H190.763C192.278 94.9863 193.506 93.7563 193.506 92.2391V83.1213C193.506 81.6041 192.278 80.3741 190.763 80.3741Z" fill="#B71704"/>
<path opacity="0.1" d="M89.7146 21.9219H46.9253C45.41 21.9219 44.1815 23.1518 44.1815 24.669V33.7868C44.1815 35.3041 45.41 36.534 46.9253 36.534H89.7146C91.23 36.534 92.4584 35.3041 92.4584 33.7868V24.669C92.4584 23.1518 91.23 21.9219 89.7146 21.9219Z" fill="#B71704"/>
<path opacity="0.1" d="M140.237 36.5341H97.4475C95.9322 36.5341 94.7037 37.764 94.7037 39.2812V48.399C94.7037 49.9162 95.9322 51.1462 97.4475 51.1462H140.237C141.752 51.1462 142.981 49.9162 142.981 48.399V39.2812C142.981 37.764 141.752 36.5341 140.237 36.5341Z" fill="#B71704"/>
<path opacity="0.1" d="M190.763 51.1462H147.973C146.458 51.1462 145.229 52.3762 145.229 53.8934V63.0112C145.229 64.5284 146.458 65.7584 147.973 65.7584H190.763C192.278 65.7584 193.506 64.5284 193.506 63.0112V53.8934C193.506 52.3762 192.278 51.1462 190.763 51.1462Z" fill="#B71704"/>
<path opacity="0.1" d="M89.7146 0H46.9253C45.41 0 44.1815 1.22995 44.1815 2.74717V11.865C44.1815 13.3822 45.41 14.6121 46.9253 14.6121H89.7146C91.23 14.6121 92.4584 13.3822 92.4584 11.865V2.74717C92.4584 1.22995 91.23 0 89.7146 0Z" fill="#B71704"/>
<path opacity="0.1" d="M140.237 14.6122H97.4475C95.9322 14.6122 94.7037 15.8421 94.7037 17.3594V26.4772C94.7037 27.9944 95.9322 29.2243 97.4475 29.2243H140.237C141.752 29.2243 142.981 27.9944 142.981 26.4772V17.3594C142.981 15.8421 141.752 14.6122 140.237 14.6122Z" fill="#B71704"/>
<path opacity="0.1" d="M190.763 29.228H147.973C146.458 29.228 145.229 30.458 145.229 31.9752V41.093C145.229 42.6102 146.458 43.8402 147.973 43.8402H190.763C192.278 43.8402 193.506 42.6102 193.506 41.093V31.9752C193.506 30.458 192.278 29.228 190.763 29.228Z" fill="#B71704"/>
</g>
<g opacity="0.1">
<path opacity="0.1" d="M109.165 204.171C109.17 206.267 108.955 208.358 108.522 210.408C108.441 210.778 108.352 211.174 108.264 211.543C105.985 220.702 99.5487 227.402 91.8712 227.812C91.6164 227.812 91.3579 227.834 91.092 227.834C82.9677 227.834 76.1064 220.809 73.8426 211.166C73.7762 210.907 73.7208 210.652 73.6654 210.393C73.2326 208.343 73.0172 206.252 73.0228 204.156C73.0228 191.071 81.1102 180.493 91.092 180.493C101.074 180.493 109.165 191.086 109.165 204.171Z" fill="#3F3D56"/>
<path opacity="0.1" d="M109.165 204.171C109.171 206.267 108.955 208.358 108.522 210.408C108.441 210.778 108.352 211.174 108.264 211.543C107.991 211.543 107.725 211.543 107.455 211.51C105.467 211.401 103.491 211.13 101.547 210.7C99.8223 211.232 98.0608 211.635 96.2768 211.906C94.9086 212.106 93.5302 212.229 92.1482 212.275C91.6829 212.275 91.2176 212.301 90.7523 212.301C89.0974 212.3 87.4443 212.191 85.8038 211.972C83.1562 211.615 80.5556 210.967 78.0488 210.042C76.675 210.495 75.2754 210.866 73.8574 211.151C73.7909 210.893 73.7355 210.637 73.6801 210.379C73.2474 208.328 73.032 206.237 73.0376 204.141C73.0376 191.056 81.125 180.478 91.1068 180.478C101.089 180.478 109.165 191.086 109.165 204.171Z" fill="black"/>
<path opacity="0.1" d="M147.715 160.05C147.723 154.293 146.375 148.616 143.782 143.478L122.529 150.093L141.182 139.111C138.055 134.585 133.951 130.819 129.175 128.094C124.399 125.368 119.073 123.752 113.589 123.364C112.718 122.038 111.762 120.769 110.727 119.567L80.176 129.08L105.21 114.342C100.422 110.669 94.8046 108.233 88.8535 107.25C82.9024 106.266 76.801 106.764 71.088 108.701C65.375 110.638 60.2263 113.954 56.0965 118.355C51.9668 122.757 48.9832 128.109 47.4091 133.939L73.5583 164.076L45.1528 143.548C37.9696 148.649 32.8558 156.165 30.7429 164.724C28.6299 173.284 29.6586 182.319 33.6414 190.184C37.6241 198.048 44.296 204.218 52.4416 207.57C60.5871 210.922 69.6642 211.232 78.0193 208.445C85.5836 211.226 93.8487 211.453 101.554 209.092C106.923 210.28 112.489 210.247 117.843 208.995C123.198 207.744 128.203 205.305 132.491 201.859C136.779 198.413 140.24 194.048 142.619 189.085C144.998 184.122 146.235 178.688 146.238 173.183C146.238 172.366 146.208 171.556 146.156 170.75C147.2 167.279 147.725 163.674 147.715 160.05V160.05Z" fill="#B71704"/>
<path opacity="0.1" d="M147.083 166.871C135.86 164.741 124.35 164.594 113.076 166.439C100.317 168.554 87.2736 173.201 74.7917 169.803C67.4688 167.807 61.1281 163.192 53.9824 160.634C47.0794 158.215 39.6407 157.766 32.4973 159.336C29.7726 165.856 28.9809 173.023 30.2167 179.981C31.4525 186.94 34.6635 193.394 39.466 198.574C44.2684 203.754 50.4591 207.439 57.2979 209.189C64.1367 210.94 71.3344 210.681 78.0304 208.445C85.5913 211.223 93.8521 211.45 101.554 209.092C106.923 210.28 112.489 210.247 117.843 208.995C123.198 207.743 128.203 205.305 132.491 201.859C136.779 198.413 140.24 194.048 142.619 189.085C144.998 184.122 146.235 178.688 146.238 173.183C146.238 172.366 146.208 171.556 146.156 170.75C146.536 169.475 146.845 168.18 147.083 166.871Z" fill="black"/>
</g>
<path opacity="0.1" d="M202 295.46C313.562 295.46 404 278.988 404 258.67C404 238.352 313.562 221.881 202 221.881C90.4385 221.881 0 238.352 0 258.67C0 278.988 90.4385 295.46 202 295.46Z" fill="#B71704"/>
<path opacity="0.1" d="M293.79 242.831C293.79 242.831 296.493 253.073 298.425 253.269C300.356 253.464 319.843 253.073 319.075 251.719C318.307 250.366 309.81 241.673 309.81 241.673L293.79 242.831Z" fill="white"/>
<ellipse cx="293.818" cy="248.949" rx="21.3018" ry="11.3994" fill="#04508B"/>
<ellipse cx="240.196" cy="239.388" rx="21.3018" ry="11.3994" fill="#04508B" fill-opacity="0.3"/>
<ellipse cx="348.909" cy="259.245" rx="21.3018" ry="11.3994" fill="#04508B" fill-opacity="0.4"/>
<ellipse cx="248.276" cy="270.277" rx="21.3018" ry="11.3994" fill="#04508B" fill-opacity="0.5"/>
<path d="M201.919 203.117H201.915C196.213 203.117 191.59 207.745 191.59 213.455V213.459C191.59 219.168 196.213 223.797 201.915 223.797H201.919C207.621 223.797 212.244 219.168 212.244 213.459V213.455C212.244 207.745 207.621 203.117 201.919 203.117Z" fill="#192534"/>
<path d="M196.509 240.065C197.893 238.849 199.3 237.61 200.298 236.061C201.213 234.641 201.753 233.018 202.258 231.406C203.704 226.799 204.948 222.134 205.992 217.411C200.309 216.542 196.065 211.517 190.508 210.042C190.375 210.005 186.124 235.576 185.814 237.913C185.559 239.843 183.358 249.061 185.866 249.113C187.206 249.142 190.005 245.785 190.995 244.901L196.509 240.065Z" fill="#3F3D56"/>
<path opacity="0.1" d="M196.509 240.065C197.893 238.849 199.3 237.61 200.298 236.061C201.213 234.641 201.753 233.018 202.258 231.406C203.704 226.799 204.948 222.134 205.992 217.411C200.309 216.542 196.065 211.517 190.508 210.042C190.375 210.005 186.124 235.576 185.814 237.913C185.559 239.843 183.358 249.061 185.866 249.113C187.206 249.142 190.005 245.785 190.995 244.901L196.509 240.065Z" fill="black"/>
<path d="M126.274 175.545C125.646 175.642 124.982 175.69 124.465 176.056C123.726 176.573 123.538 177.535 123.187 178.37C122.726 179.443 121.946 180.347 120.953 180.958C120.107 181.476 119.077 181.824 118.571 182.674C118.285 183.247 118.149 183.883 118.176 184.523C118.109 186.417 118.194 188.314 118.43 190.195C118.549 191.137 118.704 192.099 118.508 193.027C118.283 194.11 117.603 195.031 116.957 195.929C115.406 198.077 113.888 200.436 113.763 203.084C113.7 204.415 113.995 205.779 113.659 207.069C113.065 209.358 110.642 210.852 110.169 213.166C110.029 213.85 110.066 214.575 109.8 215.215C109.335 216.324 108.053 216.93 107.725 218.073C107.477 218.931 107.839 219.837 107.865 220.728C107.902 222.033 107.219 223.238 106.561 224.362L102.717 230.907C101.469 233.029 100.191 235.247 99.9808 237.702C99.7924 239.88 100.468 242.036 101.21 244.092C102.861 248.658 105.313 253.494 109.837 255.25C112.5 256.286 115.465 256.064 118.312 255.827C122.212 255.505 126.137 255.176 129.9 254.108C131.765 253.579 133.593 252.873 135.477 252.496C136.732 252.248 138.021 252.126 139.232 251.723C140.541 251.252 141.699 250.437 142.586 249.364C143.472 248.29 144.053 246.998 144.269 245.622C145.879 246.258 147.371 244.143 147.142 242.428C146.913 240.712 145.761 239.259 145.296 237.595C144.631 235.299 145.296 232.807 146.404 230.692C147.512 228.577 149.041 226.706 150.248 224.647C151.593 222.341 152.528 219.819 153.01 217.193C153.657 213.647 153.461 210.005 153.262 206.408L152.501 192.657C152.36 190.139 152.202 187.54 151.094 185.262C149.879 182.781 147.663 180.962 145.451 179.309C142.187 176.823 138.764 174.553 135.203 172.514C132.906 171.227 133.069 171.726 131.241 173.253C129.825 174.456 128.107 175.249 126.274 175.545V175.545Z" fill="#3F3D56"/>
<path d="M157.316 213.802C154.705 215.866 152.061 217.958 150.052 220.613C147.626 223.841 146.249 227.738 146.108 231.775C146.085 233.665 146.217 235.553 146.504 237.421C146.899 240.472 147.611 243.87 150.178 245.556C151.795 246.617 154.019 246.883 155.123 248.473C155.47 248.972 155.673 249.582 156.079 250.022C156.818 250.821 157.97 250.995 159.034 251.054C160.623 251.143 162.217 251.094 163.797 250.906C165.603 250.688 167.438 250.292 169.226 250.632C172.705 251.287 175.301 254.574 178.827 255.014C181.756 255.383 184.5 253.679 186.952 252.056C189.481 250.381 192.122 248.588 193.492 245.877C194.825 243.245 194.751 240.146 194.648 237.192C194.533 233.913 194.415 230.592 193.54 227.427C193.268 226.599 193.059 225.751 192.916 224.891C192.653 222.672 193.654 220.491 194.393 218.369C195.541 215.141 196.043 211.162 193.761 208.611C192.797 207.532 191.457 206.866 190.098 206.393C184.097 204.233 177.472 205.054 171.316 206.023C165.441 206.914 161.925 210.168 157.316 213.802Z" fill="#3F3D56"/>
<path d="M208.204 201.024C205.826 204.6 203.44 208.201 201.723 212.116C200.552 214.958 199.565 217.873 198.769 220.842C196.398 229.047 194.046 237.429 189.311 244.532C188.632 245.552 187.878 246.613 187.808 247.837C187.742 248.983 188.288 250.055 188.816 251.076C189.924 253.235 191.084 255.417 192.664 257.273C194.245 259.129 196.136 260.534 198.041 261.969C201.996 264.926 206.391 268.062 211.336 267.84C212.358 267.792 213.452 267.555 214.135 266.79C214.818 266.025 214.914 264.967 214.792 263.984C214.423 260.941 212.133 258.548 210.058 256.293C207.982 254.038 205.896 251.401 206.062 248.325C206.191 245.785 207.853 243.618 209.445 241.636C211.265 239.366 213.09 237.1 214.807 234.752C222.233 224.603 227.595 213.063 231.846 201.22C233.637 196.221 235.265 190.971 234.708 185.691C230.646 184.693 222.521 181.358 219.091 184.8C217.011 186.885 215.542 189.976 213.921 192.435L208.204 201.024Z" fill="#FBBEBE"/>
<path d="M242.503 166.309C239.93 170.804 237.916 175.597 236.506 180.581C236.163 181.787 235.856 183.058 236.119 184.279C236.403 185.587 237.293 186.663 237.965 187.817C238.637 188.971 239.11 190.431 238.5 191.622C235.62 191.847 232.765 191.06 229.981 190.279L221.251 187.839C220.527 187.7 219.849 187.385 219.275 186.922C218.263 185.965 218.341 184.356 218.537 182.981C220.247 171.719 225.738 161.336 227.795 150.137C228.094 148.521 228.408 146.731 229.693 145.7C233.386 142.779 241.746 145.253 243.659 149.482C245.798 154.178 244.922 162.09 242.503 166.309Z" fill="#B71704"/>
<path d="M195.77 127.819C195.441 127.989 195.072 128.189 194.972 128.537C194.95 128.726 194.97 128.918 195.03 129.098C195.09 129.279 195.189 129.445 195.32 129.583L199.046 134.833C202.72 140.01 206.402 145.219 210.652 149.941C213.861 153.503 217.375 156.777 221.155 159.724C222.218 160.552 223.352 161.414 223.873 162.66C221.551 155.775 221.963 148.259 225.025 141.67C226.244 139.082 227.854 136.682 229.12 134.109C229.24 133.967 229.321 133.797 229.356 133.615C229.39 133.434 229.377 133.246 229.318 133.07C229.259 132.895 229.156 132.737 229.019 132.614C228.881 132.49 228.714 132.404 228.533 132.363C225.306 130.7 221.775 129.694 218.563 128C216.04 126.669 213.762 124.939 211.498 123.235C209.478 121.715 206.79 119.031 204.297 118.391C201.605 117.696 201.712 120.155 200.844 122.207C199.846 124.605 198.055 126.587 195.77 127.819Z" fill="#FBBEBE"/>
<path opacity="0.1" d="M195.77 127.819C195.441 127.989 195.072 128.189 194.972 128.537C194.95 128.726 194.97 128.918 195.03 129.098C195.09 129.279 195.189 129.445 195.32 129.583L199.046 134.833C202.72 140.01 206.402 145.219 210.652 149.941C213.861 153.503 217.375 156.777 221.155 159.724C222.218 160.552 223.352 161.414 223.873 162.66C221.551 155.775 221.963 148.259 225.025 141.67C226.244 139.082 227.854 136.682 229.12 134.109C229.24 133.967 229.321 133.797 229.356 133.615C229.39 133.434 229.377 133.246 229.318 133.07C229.259 132.895 229.156 132.737 229.019 132.614C228.881 132.49 228.714 132.404 228.533 132.363C225.306 130.7 221.775 129.694 218.563 128C216.04 126.669 213.762 124.939 211.498 123.235C209.478 121.715 206.79 119.031 204.297 118.391C201.605 117.696 201.712 120.155 200.844 122.207C199.846 124.605 198.055 126.587 195.77 127.819Z" fill="black"/>
<path d="M218.618 148.743C216.93 146.835 214.652 145.574 212.654 143.992C209.781 141.714 207.51 138.778 205.316 135.839C201.291 130.43 197.233 123.804 199.238 117.352C197.107 117.145 195.268 118.897 194.263 120.787C193.259 122.676 192.742 124.828 191.49 126.562C189.588 129.198 186.353 130.426 183.34 131.631C176.716 134.285 170.317 137.469 164.204 141.152C161.748 142.631 159.303 144.217 157.427 146.384C155.418 148.695 154.159 151.56 152.453 154.093C149.129 159.073 144.077 162.811 138.472 164.926C136.625 165.629 134.646 166.176 132.995 167.293C129.457 169.685 127.984 174.455 128.822 178.647C129.66 182.84 132.515 186.412 135.946 188.948C139.376 191.485 143.283 192.982 147.242 194.461C150.561 195.681 153.9 196.845 157.261 197.952C159.734 198.808 162.262 199.495 164.828 200.007C169.551 200.876 174.407 200.662 179.182 201.191C183.547 201.671 187.834 202.777 192.218 203.084C196.601 203.391 201.243 202.806 204.814 200.251C207.654 198.222 209.545 195.156 211.291 192.117C215.826 184.281 219.876 176.173 223.419 167.84C224.464 165.374 234.161 151.405 231.746 149.601C219.585 140.516 223.622 154.951 222.462 153.842C220.911 152.355 220.021 150.329 218.618 148.743Z" fill="#B71704"/>
<path d="M203.555 140.387C200.944 135.129 199.179 129.502 197.425 123.904C196.941 122.351 196.453 120.672 196.974 119.134C197.602 117.285 199.611 115.707 199.02 113.854C194.322 115.333 188.868 117.651 187.941 122.499C187.738 123.556 187.775 124.684 187.284 125.638C186.327 127.509 183.89 127.908 181.818 128.226C175.792 129.191 169.802 131.624 165.673 136.124C164.979 136.863 164.325 137.702 163.457 138.257C162.83 138.627 162.162 138.925 161.467 139.144C157.427 140.597 153.273 142.409 150.673 145.829C149.332 147.589 148.476 149.7 146.98 151.335C144.956 153.553 141.976 154.662 139.786 156.729C138.309 158.105 137.257 159.85 136.282 161.614C132.53 168.402 129.779 176.362 131.769 183.864C132.807 187.787 135.093 191.281 136.322 195.149C138.017 200.418 137.851 206.426 141.031 210.955C143.036 213.802 146.138 215.684 149.314 217.104C156.38 220.252 164.144 221.503 171.84 220.735C174.694 220.403 177.529 219.924 180.334 219.3C187.029 217.918 193.794 216.413 199.877 213.285C210.25 207.949 217.713 198.414 224.84 189.17C226.196 187.41 227.562 185.636 228.533 183.624C229.482 181.705 230.055 179.627 230.694 177.586C232.854 170.705 235.893 163.854 235.609 156.652C235.62 155.789 235.45 154.934 235.11 154.141C234.822 153.549 234.372 153.032 234.117 152.437C233.666 151.372 233.869 150.14 233.552 149.028C232.669 145.922 228.592 145.33 225.365 145.356L224.331 163.581C224.172 166.317 223.88 169.352 221.845 171.186C220.975 171.936 219.889 172.388 218.744 172.478C217.599 172.568 216.455 172.29 215.479 171.685C213.308 170.277 213.001 167.818 213.016 165.463C213.038 162.505 212.798 159.794 211.856 156.958C209.906 151.076 206.295 145.914 203.555 140.387Z" fill="#192534"/>
<path d="M204.84 192.321C217.698 198.846 230.631 205.42 242.138 214.109C244.797 216.113 247.382 218.236 250.192 220.025C258.246 225.15 268.239 227.645 274.454 234.892C275.761 236.412 276.869 238.12 278.376 239.437C279.684 240.512 281.145 241.384 282.711 242.025C287.704 244.231 293.111 245.342 298.569 245.282C299.998 245.264 301.467 245.156 302.753 244.543C306.213 242.864 306.999 238.368 307.35 234.534C307.468 233.236 307.494 231.705 306.475 230.899C305.925 230.467 305.197 230.356 304.507 230.248C293.277 228.474 282.914 223.061 273.531 216.631C264.147 210.201 255.547 202.695 246.292 196.081C243.039 193.755 239.708 191.54 236.377 189.326L225.597 182.16C219.896 178.37 213.891 174.466 207.081 173.752C206.694 173.685 206.297 173.711 205.922 173.83C205.324 174.063 204.991 174.684 204.699 175.253C202.702 179.15 200.268 182.689 197.82 186.297C196.509 188.227 196.361 188.727 198.621 189.758C200.656 190.69 202.812 191.293 204.84 192.321Z" fill="#FBBEBE"/>
<path d="M230.106 300C230.253 300 230.394 299.942 230.498 299.838C230.602 299.734 230.66 299.593 230.66 299.445C230.66 299.298 230.602 299.157 230.498 299.053C230.394 298.949 230.253 298.891 230.106 298.891C229.96 298.891 229.819 298.949 229.715 299.053C229.611 299.157 229.552 299.298 229.552 299.445C229.552 299.593 229.611 299.734 229.715 299.838C229.819 299.942 229.96 300 230.106 300Z" fill="black"/>
<path d="M234.146 152.777C253.654 152.777 269.469 136.943 269.469 117.411C269.469 97.8792 253.654 82.0454 234.146 82.0454C214.638 82.0454 198.824 97.8792 198.824 117.411C198.824 136.943 214.638 152.777 234.146 152.777Z" fill="#FBBEBE"/>
<path d="M206.383 131.202C207.011 128.026 210.652 126.422 213.876 126.207C217.139 126.032 220.389 126.72 223.302 128.202C226.214 129.685 228.684 131.909 230.465 134.652C231.211 132.67 231.715 130.604 231.964 128.5L237.873 128.94C238.532 129.042 239.207 128.981 239.837 128.762C240.598 128.422 241.067 127.653 241.462 126.913C244.047 122.081 245.775 116.15 250.628 113.603V120.258C251.956 119.999 253.208 119.438 254.285 118.618C255.363 117.798 256.238 116.741 256.843 115.529C257.176 117.371 257.706 119.172 258.423 120.901C258.542 121.19 258.708 121.508 259.007 121.582C259.153 121.592 259.299 121.572 259.437 121.521C259.575 121.471 259.7 121.392 259.805 121.29C262.067 119.57 264.114 117.584 265.901 115.374L272.918 127.553C276.972 117.304 277.193 105.934 273.542 95.5339C269.89 85.1341 262.611 76.4041 253.043 70.9495C251.421 70.0138 249.728 69.2065 247.98 68.5351C243.412 66.8121 238.489 66.2612 233.618 65.9284C226.694 65.4552 219.386 65.4737 213.308 68.7976C210.039 70.5835 207.325 73.216 204.703 75.8634C201.158 79.435 197.613 83.2101 195.726 87.8799C194.422 91.104 193.975 94.5981 193.58 98.0515C193.34 100.141 193.119 102.3 193.713 104.315C194.127 105.709 194.906 106.962 195.43 108.319C196.302 110.575 196.439 113.037 196.775 115.433C197.52 120.728 199.247 125.836 201.867 130.496C202.421 131.483 203.13 132.533 204.234 132.785C205.338 133.036 206.664 131.816 206.081 130.855" fill="#192534"/>
<path d="M206.383 131.202C207.011 128.026 210.652 126.422 213.876 126.207C217.139 126.032 220.389 126.72 223.302 128.202C226.214 129.685 228.684 131.909 230.465 134.652C231.211 132.67 231.715 130.604 231.964 128.5L237.873 128.94C238.532 129.042 239.207 128.981 239.837 128.762C240.598 128.422 241.067 127.653 241.462 126.913C244.047 122.081 245.775 116.15 250.628 113.603V120.258C251.956 119.999 253.208 119.438 254.285 118.618C255.363 117.798 256.238 116.741 256.843 115.529C257.176 117.371 257.706 119.172 258.423 120.901C258.542 121.19 258.708 121.508 259.007 121.582C259.153 121.592 259.299 121.572 259.437 121.521C259.575 121.471 259.7 121.392 259.805 121.29C262.067 119.57 264.114 117.584 265.901 115.374L272.918 127.553C276.972 117.304 277.193 105.934 273.542 95.5339C269.89 85.1341 262.611 76.4041 253.043 70.9495C251.421 70.0138 249.728 69.2065 247.98 68.5351C243.412 66.8121 238.489 66.2612 233.618 65.9284C226.694 65.4552 219.386 65.4737 213.308 68.7976C210.039 70.5835 207.325 73.216 204.703 75.8634C201.158 79.435 197.613 83.2101 195.726 87.8799C194.422 91.104 193.975 94.5981 193.58 98.0515C193.34 100.141 193.119 102.3 193.713 104.315C194.127 105.709 194.906 106.962 195.43 108.319C196.302 110.575 196.439 113.037 196.775 115.433C197.52 120.728 199.247 125.836 201.867 130.496C202.421 131.483 203.13 132.533 204.234 132.785C205.338 133.036 206.664 131.816 206.081 130.855" stroke="black" stroke-miterlimit="10"/>
<path d="M165.843 165.145C167.269 169.068 170.851 171.73 174.248 174.155L183.111 180.485C185.467 182.167 187.886 183.913 189.418 186.368C187.177 187.218 186.154 190.102 186.889 192.387C187.624 194.672 189.732 196.31 192.029 197.05C194.326 197.789 196.764 197.763 199.16 197.626C201.911 197.475 204.792 197.142 207.063 195.578L202.074 192.502C200.759 191.685 199.249 190.383 199.729 188.915L204.991 188.863C205.545 188.863 206.147 188.838 206.587 188.494C207.026 188.15 207.177 187.621 207.362 187.118C208.145 185.085 209.48 183.312 211.218 182C212.955 180.687 215.025 179.889 217.192 179.694C218.492 179.598 219.988 179.653 220.885 178.685C221.469 178.041 221.594 177.117 221.698 176.255C221.893 174.614 222.086 172.928 221.761 171.319C221.436 169.711 220.498 168.114 218.991 167.437C217.883 166.934 216.602 166.982 215.39 166.82C209.818 166.08 205.955 161.022 202.964 156.256C199.973 151.49 196.764 146.218 191.431 144.443C189.766 143.944 188.04 143.679 186.302 143.655C182.457 143.496 178.499 143.811 174.998 145.408C168.472 148.384 163.302 158.164 165.843 165.145Z" fill="#B71704"/>
<path opacity="0.1" d="M272.951 120.972L265.935 108.792C264.148 111.004 262.101 112.99 259.838 114.708C259.734 114.812 259.609 114.892 259.471 114.943C259.333 114.994 259.186 115.015 259.04 115.004C258.741 114.93 258.575 114.612 258.457 114.324C257.739 112.594 257.209 110.791 256.876 108.948C256.272 110.161 255.397 111.219 254.319 112.039C253.242 112.86 251.99 113.422 250.661 113.68V107.025C245.809 109.58 244.095 115.511 241.495 120.336C241.1 121.075 240.631 121.833 239.87 122.184C239.24 122.403 238.565 122.464 237.906 122.362L231.997 121.922C231.748 124.026 231.245 126.092 230.498 128.074C228.718 125.332 226.247 123.107 223.335 121.625C220.423 120.142 217.172 119.454 213.91 119.63C210.686 119.844 207.044 121.449 206.417 124.625L206.103 124.277C206.697 125.242 205.364 126.462 204.256 126.211C203.148 125.96 202.443 124.909 201.889 123.922C199.276 119.257 197.557 114.145 196.819 108.848C196.483 106.452 196.346 103.99 195.475 101.734C194.95 100.377 194.171 99.1238 193.758 97.7299C193.758 97.6818 193.732 97.6374 193.721 97.5894C193.687 97.8667 193.654 98.144 193.625 98.4213C193.385 100.514 193.163 102.67 193.758 104.707C194.171 106.101 194.95 107.354 195.475 108.707C196.346 110.967 196.483 113.425 196.819 115.825C197.556 121.121 199.276 126.232 201.889 130.896C202.443 131.883 203.152 132.937 204.256 133.188C205.361 133.439 206.686 132.219 206.103 131.254L206.417 131.598C207.044 128.426 210.686 126.817 213.91 126.607C217.172 126.429 220.423 127.117 223.335 128.599C226.247 130.08 228.718 132.305 230.498 135.048C231.245 133.067 231.749 131.002 231.997 128.899L237.906 129.335C238.565 129.439 239.24 129.378 239.87 129.158C240.631 128.818 241.1 128.049 241.495 127.309C244.08 122.473 245.809 116.546 250.661 113.998V120.654C251.99 120.395 253.242 119.833 254.319 119.013C255.397 118.192 256.272 117.134 256.876 115.921C257.21 117.764 257.74 119.567 258.457 121.297C258.575 121.582 258.741 121.903 259.04 121.974C259.186 121.986 259.333 121.966 259.471 121.916C259.609 121.865 259.734 121.786 259.838 121.682C262.101 119.963 264.148 117.977 265.935 115.766L272.951 127.945C275.482 121.482 276.523 114.531 275.998 107.609C275.658 112.191 274.631 116.696 272.951 120.972Z" fill="black"/>
</svg>
