<svg width="322" height="281" viewBox="0 0 322 281" fill="none" xmlns="http://www.w3.org/2000/svg">
<g clip-path="url(#clip0_24_18)">
<path d="M53.408 97.8213C52.6546 97.8972 51.8965 97.9149 51.1404 97.8742C51.0116 97.8601 50.8823 97.8972 50.7805 97.9775C50.6787 98.0579 50.6125 98.175 50.5961 98.3037L49.1497 109.16C49.0385 109.948 48.716 110.692 48.2166 111.311C47.8049 111.804 47.4988 112.377 47.3174 112.993C47.136 113.609 47.0832 114.256 47.1622 114.894V133.336C47.1622 133.336 47.0688 135.795 48.9569 135.795C51.2166 136.079 53.5029 136.079 55.7626 135.795C55.7626 135.795 57.2743 135.508 57.2743 133.239V115.081C57.3896 114.447 57.3659 113.796 57.2047 113.172C57.0436 112.549 56.7489 111.968 56.3411 111.47C55.8584 110.848 55.5464 110.111 55.436 109.332L53.9336 98.2477C53.9166 98.1231 53.8527 98.0096 53.7551 97.9304C53.6575 97.8512 53.5333 97.8122 53.408 97.8213V97.8213Z" fill="white"/>
<path d="M52.3531 136.319C51.2111 136.319 50.0701 136.248 48.9368 136.106C48.6836 136.112 48.4319 136.065 48.1975 135.969C47.9631 135.873 47.7511 135.73 47.5747 135.548C46.8064 134.749 46.8491 133.382 46.8513 133.324L46.8511 114.913C46.7709 114.236 46.8295 113.55 47.0232 112.896C47.217 112.243 47.5418 111.635 47.9779 111.112C48.4402 110.537 48.7387 109.848 48.8417 109.117L50.2878 98.2625C50.316 98.0538 50.4243 97.8642 50.5897 97.7339C50.7552 97.6037 50.9648 97.543 51.1742 97.5648C51.9087 97.6036 52.6451 97.5858 53.3769 97.5116L53.3855 97.5108C53.5897 97.496 53.7919 97.5596 53.951 97.6886C54.11 97.8176 54.214 98.0024 54.2418 98.2054L55.7442 109.29C55.8475 110.015 56.1379 110.7 56.5867 111.279C57.019 111.807 57.3321 112.423 57.5044 113.084C57.6768 113.745 57.7044 114.436 57.5853 115.108V133.239C57.5853 135.737 55.8381 136.097 55.8204 136.101C54.6703 136.246 53.5123 136.318 52.3531 136.319V136.319ZM51.0982 98.1837C51.0519 98.1814 51.0065 98.1965 50.9707 98.2259C50.9349 98.2554 50.9114 98.2971 50.9047 98.3429L49.458 109.202C49.3391 110.046 48.9937 110.843 48.4587 111.507C48.0741 111.968 47.788 112.503 47.6181 113.079C47.4482 113.655 47.3981 114.259 47.4708 114.855L47.4732 114.894V133.336C47.4726 133.359 47.4396 134.512 48.0243 135.118C48.1453 135.241 48.2909 135.337 48.4516 135.4C48.6123 135.463 48.7845 135.492 48.9569 135.484L48.9957 135.486C51.2296 135.767 53.4898 135.767 55.7238 135.486C55.7533 135.479 56.9632 135.203 56.9632 133.239L56.9683 115.025C57.0759 114.436 57.0541 113.83 56.9043 113.25C56.7544 112.67 56.4801 112.13 56.1005 111.667C55.5823 111.001 55.2471 110.211 55.1281 109.375L53.6254 98.2894C53.6188 98.244 53.5955 98.2026 53.5601 98.1734C53.5246 98.1442 53.4796 98.1293 53.4337 98.1315C52.6662 98.2084 51.894 98.2263 51.1238 98.185C51.1153 98.1841 51.1067 98.1837 51.0981 98.1837H51.0982Z" fill="#3F3D56"/>
<path d="M51.1248 115.224H53.4172C54.3288 115.224 55.203 115.586 55.8476 116.231C56.4921 116.876 56.8543 117.751 56.8543 118.663V127.294C56.8543 128.206 56.4921 129.081 55.8476 129.726C55.203 130.371 54.3288 130.734 53.4172 130.734H51.1248C50.2132 130.734 49.339 130.371 48.6944 129.726C48.0499 129.081 47.6877 128.206 47.6877 127.294V118.663C47.6877 118.211 47.7766 117.764 47.9494 117.347C48.1221 116.93 48.3753 116.55 48.6944 116.231C49.0136 115.912 49.3925 115.658 49.8095 115.485C50.2265 115.313 50.6734 115.224 51.1248 115.224V115.224Z" fill="#04508B"/>
<path d="M8.97996 273.75H16.4537L20.0093 244.903L8.97864 244.904L8.97996 273.75Z" fill="#9F616A"/>
<path d="M7.07361 271.309L21.7922 271.308H21.7928C24.2804 271.308 26.6661 272.297 28.4251 274.057C30.1842 275.817 31.1724 278.205 31.1726 280.694V280.999L7.07405 281L7.07361 271.309Z" fill="#2F2E41"/>
<path d="M4.28142 170.715C4.28142 170.715 1.04234 174.379 6.40576 188.662L5.46104 266.974L22.8422 266.635L26.6628 228.435L33.6189 172.69L4.28142 170.715Z" fill="#2F2E41"/>
<path d="M39.5802 181.543L39.3899 181.514C17.1545 178.12 0.375332 174.867 0.208439 174.834L0 174.794L5.82882 160.607C5.78278 159.125 4.52104 117.496 6.93641 105.536C9.27464 93.9576 20.2963 92.0601 21.5522 91.8816L22.8134 87.7002L38.7461 95.9965L41.5248 105.567L42.0893 131.796L39.5802 181.543Z" fill="#3F3D56"/>
<path d="M49.1762 127.557C48.4587 127.557 47.749 127.705 47.0916 127.993C46.4343 128.28 45.8435 128.701 45.3565 129.228H18.5763L8.76685 131.318L10.3774 143.748L45.2724 136.239C45.8502 136.892 46.5821 137.389 47.4015 137.686C48.2209 137.983 49.1015 138.07 49.9631 137.939C50.8247 137.808 51.6397 137.463 52.3337 136.936C53.0278 136.408 53.5788 135.715 53.9363 134.92C54.2939 134.125 54.4468 133.252 54.3809 132.383C54.315 131.513 54.0324 130.674 53.5591 129.942C53.0857 129.21 52.4366 128.608 51.671 128.191C50.9054 127.774 50.0477 127.556 49.1762 127.557H49.1762Z" fill="#9F616A"/>
<path d="M49.4085 83.0012C52.8275 76.7424 50.5289 68.8949 44.2743 65.4735C38.0197 62.0521 30.1776 64.3524 26.7585 70.6112C23.3395 76.8701 25.6381 84.7175 31.8927 88.1389C38.1473 91.5603 45.9894 89.2601 49.4085 83.0012Z" fill="#9F616A"/>
<path d="M25.9446 66.481L25.3189 65.2208L28.4673 63.6554C28.4673 63.6554 31.9405 58.0003 38.2253 59.5895C44.5102 61.1788 47.3378 62.1299 47.3378 62.1299L50.4783 63.7111L48.9021 65.2804L51.7297 66.2315L49.8407 67.1707L52.0386 68.4349L50.8554 74.9156C50.8554 74.9156 48.8902 70.0002 45.1122 71.8786C41.3341 73.757 34.4235 70.9076 34.4235 70.9076L28.4197 82.5348C28.4197 82.5348 27.1811 78.4589 24.9727 79.5457C24.9727 79.5457 19.331 70.5548 25.9446 66.481Z" fill="#2F2E41"/>
<path d="M10.5488 146.079L7.48628 136.963L6.74548 106.575L8.05037 102.264C8.52005 100.712 9.29797 99.2709 10.3375 98.0272C11.377 96.7834 12.6568 95.7625 14.1 95.0256C15.5433 94.2887 17.1204 93.8509 18.7368 93.7386C20.3532 93.6262 21.9756 93.8415 23.5068 94.3717C25.0381 94.9018 26.4466 95.7358 27.648 96.8237C28.8494 97.9116 29.819 99.2311 30.4986 100.703C31.1782 102.175 31.5538 103.769 31.603 105.389C31.6522 107.01 31.374 108.624 30.7849 110.134L23.7909 128.069L24.1464 128.76L39.2991 128.637L44.6816 138.332L10.5488 146.079Z" fill="#3F3D56"/>
<path d="M162.155 142.333C162.72 141.952 163.195 141.451 163.546 140.866C163.898 140.282 164.117 139.627 164.188 138.948C164.259 138.27 164.18 137.584 163.958 136.939C163.735 136.294 163.374 135.706 162.9 135.216L170.369 120.411L161.814 121.404L156.033 135.311C155.263 136.162 154.832 137.267 154.821 138.416C154.811 139.565 155.222 140.677 155.977 141.543C156.731 142.408 157.777 142.967 158.916 143.113C160.054 143.258 161.207 142.981 162.155 142.333V142.333Z" fill="#FFB7B7"/>
<path d="M222.055 247.203L215.324 247.202L212.122 221.221L222.056 221.222L222.055 247.203Z" fill="#FFB7B7"/>
<path d="M223.772 253.732L202.068 253.731V253.457C202.068 251.214 202.958 249.064 204.542 247.479C206.126 245.894 208.275 245.003 210.515 245.003H210.516L223.772 245.003L223.772 253.732Z" fill="#2F2E41"/>
<path d="M185.269 247.203L178.537 247.202L175.335 221.221L185.27 221.222L185.269 247.203Z" fill="#FFB7B7"/>
<path d="M185.338 253.732L163.634 253.731V253.457C163.634 251.214 164.524 249.064 166.108 247.479C167.693 245.894 169.841 245.003 172.082 245.003H172.082L185.339 245.003L185.338 253.732Z" fill="#2F2E41"/>
<path d="M184.717 137.47L178.129 152.659L172.694 239.963L186.42 239.414L190.169 197.796L201.734 160.728L208.382 202.053L211.128 238.315L222.485 238.807L227.011 137.47H184.717Z" fill="#2F2E41"/>
<path d="M217.652 62.5201L198.556 62.9981L187.345 68.7575L186.729 111.249L179.737 140.585C179.737 140.585 223.425 143.594 229.465 139.199L222.327 105.684L231.901 69.4637L217.652 62.5201Z" fill="#117049"/>
<path d="M190.293 69.4618L188.516 68.2604C188.516 68.2604 181.151 70.4693 178.974 80.2963C178.974 80.2963 177.308 85.2265 176.577 88.6162C175.739 92.5042 157.228 128.217 157.228 128.217L168.311 131.398L188.63 98.5161L190.293 69.4618Z" fill="#117049"/>
<path d="M231.601 147.782C231.163 147.259 230.844 146.647 230.668 145.988C230.491 145.329 230.461 144.639 230.58 143.967C230.699 143.295 230.963 142.658 231.355 142.099C231.746 141.541 232.256 141.075 232.846 140.735L229.747 124.443L237.696 127.758L239.421 142.721C239.927 143.752 240.036 144.933 239.73 146.04C239.423 147.147 238.721 148.103 237.758 148.727C236.794 149.351 235.635 149.599 234.5 149.425C233.365 149.251 232.334 148.666 231.601 147.782V147.782Z" fill="#FFB7B7"/>
<path d="M229.027 69.9711L231.067 69.3069C231.067 69.3069 237.538 73.4624 236.922 83.509C236.922 83.509 237.164 88.7078 236.933 92.1677C236.667 96.1363 240.227 135.572 240.227 135.572H228.697L223.756 99.8597L229.027 69.9711Z" fill="#117049"/>
<path d="M222.339 44.6933C222.339 47.3132 221.563 49.8743 220.108 52.0527C218.654 54.2311 216.586 55.929 214.168 56.9316C211.749 57.9342 209.087 58.1965 206.519 57.6854C203.951 57.1743 201.593 55.9126 199.741 54.0601C197.89 52.2075 196.629 49.8472 196.119 47.2776C195.608 44.708 195.87 42.0445 196.872 39.624C197.874 37.2035 199.57 35.1347 201.747 33.6791C203.924 32.2235 206.484 31.4466 209.102 31.4466V31.4466C212.604 31.4379 215.966 32.8216 218.449 35.2935C220.931 37.7653 222.331 41.1228 222.339 44.6273C222.339 44.6493 222.339 44.6713 222.339 44.6933Z" fill="#FFB7B7"/>
<path d="M195.908 26.9006C197.459 23.5638 200.46 24.2235 203.084 25.3546C206.408 24.6169 209.569 22.4082 213.15 23.7144C216.677 28.8483 228.52 27.3378 226.001 35.6958C225.997 37.6986 229.767 36.5329 229.109 39.8129C231.105 46.1253 221.901 58.0801 216.617 55.5627C217.924 53.1661 220.909 47.7226 216.382 47.1827C206.642 56.2513 215.377 29.914 203.139 37.5733C199.087 41.2841 193.54 30.6123 195.908 26.9006Z" fill="#2F2E41"/>
<path d="M233.919 149.103C234.549 149.229 235.2 149.216 235.825 149.064C236.45 148.912 237.034 148.625 237.536 148.223C238.038 147.821 238.445 147.313 238.73 146.736C239.015 146.159 239.17 145.526 239.184 144.883L272.422 113.577L264.944 107.607L234.566 140.336C233.485 140.384 232.458 140.828 231.681 141.582C230.904 142.337 230.431 143.351 230.351 144.431C230.272 145.512 230.591 146.584 231.248 147.445C231.905 148.306 232.856 148.896 233.919 149.103V149.103Z" fill="#9F616A"/>
<path d="M267.712 118.637L261.246 111.054C261.062 110.838 260.927 110.585 260.849 110.312C260.772 110.039 260.754 109.753 260.797 109.473C260.84 109.192 260.943 108.924 261.099 108.688C261.254 108.451 261.459 108.25 261.7 108.099L270.118 102.826C271.227 101.89 272.661 101.432 274.106 101.553C275.552 101.673 276.89 102.363 277.828 103.469C278.767 104.576 279.228 106.01 279.111 107.457C278.994 108.904 278.309 110.245 277.205 111.187L270.699 118.654C270.513 118.867 270.283 119.038 270.024 119.155C269.766 119.272 269.486 119.331 269.202 119.33C268.919 119.328 268.639 119.266 268.382 119.146C268.125 119.026 267.896 118.853 267.712 118.637V118.637Z" fill="#CBCBCB"/>
<path d="M250.324 273.117L242.197 273.116L238.33 241.749L250.325 241.75L250.324 273.117Z" fill="#9F616A"/>
<path d="M252.396 281L226.192 280.999V280.667C226.192 277.961 227.266 275.365 229.179 273.451C231.092 271.537 233.686 270.461 236.391 270.461H236.392L252.396 270.462L252.396 281Z" fill="#2F2E41"/>
<path d="M315.285 273.117L307.159 273.116L303.293 241.749L315.287 241.75L315.285 273.117Z" fill="#9F616A"/>
<path d="M317.358 281L291.154 280.999V280.667C291.154 277.961 292.229 275.365 294.141 273.451C296.054 271.537 298.648 270.461 301.353 270.461H301.354L317.359 270.462L317.358 281Z" fill="#2F2E41"/>
<path d="M293.426 135.265L301.617 104.978L290.99 99.0009H276.157L270.387 105.178C270.387 105.178 260.748 111.889 263.081 119.325L266.845 136.261L261.088 163.16L232.085 203.409L225.22 242.944L252.246 250.033L281.47 192.45L295.64 256.21L322 254.884L312.917 177.574C312.917 177.574 310.327 154.023 296.755 139.318L293.426 135.265Z" fill="#2F2E41"/>
<path d="M310.343 162.062C310.8 161.609 311.152 161.061 311.375 160.457C311.597 159.853 311.684 159.208 311.631 158.567C311.577 157.925 311.383 157.304 311.064 156.745C310.744 156.187 310.305 155.706 309.78 155.335L303.424 112.426L294.301 115.308L303.433 156.635C302.869 157.56 302.665 158.66 302.858 159.726C303.05 160.792 303.627 161.751 304.479 162.419C305.331 163.088 306.398 163.421 307.479 163.355C308.56 163.29 309.579 162.829 310.343 162.062V162.062Z" fill="#9F616A"/>
<path d="M304.994 119.16L295.098 120.302C294.816 120.335 294.531 120.306 294.261 120.218C293.992 120.13 293.744 119.986 293.536 119.793C293.327 119.601 293.163 119.366 293.053 119.105C292.943 118.843 292.891 118.561 292.9 118.278L293.221 108.344C293.063 106.901 293.483 105.455 294.389 104.322C295.296 103.189 296.614 102.462 298.055 102.3C299.496 102.138 300.943 102.554 302.077 103.458C303.212 104.361 303.943 105.678 304.108 107.12L306.674 116.688C306.747 116.962 306.761 117.249 306.713 117.529C306.666 117.808 306.559 118.075 306.4 118.309C306.24 118.544 306.032 118.741 305.79 118.888C305.547 119.035 305.276 119.128 304.994 119.16V119.16Z" fill="#CBCBCB"/>
<path d="M266.985 90.388V77.6272C266.985 73.0921 268.785 68.7428 271.99 65.536C275.195 62.3292 279.541 60.5276 284.073 60.5276C288.605 60.5276 292.951 62.3292 296.156 65.536C299.36 68.7428 301.161 73.0921 301.161 77.6272V90.388C301.16 90.997 300.918 91.5808 300.488 92.0114C300.057 92.4421 299.474 92.6843 298.865 92.685H269.28C268.672 92.6843 268.088 92.4421 267.658 92.0114C267.228 91.5808 266.986 90.997 266.985 90.388V90.388Z" fill="#2F2E41"/>
<path d="M286.571 90.8516C292.642 87.5305 294.873 79.9131 291.554 73.8377C288.236 67.7624 280.623 65.5296 274.552 68.8507C268.481 72.1718 266.25 79.7891 269.569 85.8645C272.887 91.9399 280.5 94.1727 286.571 90.8516Z" fill="#9F616A"/>
<path d="M262.942 78.6481C262.946 75.0619 264.372 71.6237 266.906 69.0879C269.44 66.552 272.876 65.1256 276.46 65.1216H279.01C282.594 65.1256 286.03 66.5521 288.564 69.0879C291.098 71.6237 292.523 75.0619 292.527 78.6481V78.9033H287.137L285.299 73.7521L284.932 78.9033H282.146L281.218 76.3043L281.033 78.9033H262.942V78.6481Z" fill="#2F2E41"/>
<path d="M279.328 94.1199C279.075 93.777 278.924 93.3696 278.893 92.9445C278.861 92.5195 278.95 92.0941 279.149 91.7173C281.852 86.5731 285.636 77.0678 280.613 71.2057L280.252 70.7845H294.834V92.6923L281.587 95.0311C281.453 95.0549 281.317 95.0669 281.181 95.067C280.819 95.067 280.463 94.9812 280.141 94.8165C279.819 94.6519 279.54 94.4131 279.328 94.1199V94.1199Z" fill="#2F2E41"/>
<path d="M145.3 105.786C145.115 105.976 144.945 106.18 144.793 106.397L121.033 105.816L118.262 100.747L110.071 103.933L114.107 113.383C114.433 114.147 114.997 114.784 115.716 115.198C116.434 115.613 117.268 115.784 118.092 115.684L144.935 112.439C145.569 113.242 146.431 113.832 147.407 114.132C148.384 114.431 149.429 114.427 150.403 114.118C151.376 113.809 152.233 113.211 152.859 112.403C153.485 111.595 153.85 110.615 153.906 109.595C153.962 108.574 153.706 107.56 153.172 106.689C152.638 105.817 151.852 105.129 150.918 104.715C149.984 104.302 148.946 104.183 147.942 104.374C146.939 104.565 146.017 105.058 145.3 105.786H145.3Z" fill="#FFB7B7"/>
<path d="M67.8481 250.176H75.6603L79.3768 220.023L67.8468 220.023L67.8481 250.176Z" fill="#FFB7B7"/>
<path d="M65.8555 247.624L81.2406 247.624H81.2412C83.8415 247.624 86.3352 248.657 88.1739 250.497C90.0126 252.337 91.0456 254.833 91.0458 257.435V257.753L65.8559 257.754L65.8555 247.624Z" fill="#2F2E41"/>
<path d="M138.786 250.003L145.97 246.931L137.55 217.741L126.948 222.274L138.786 250.003Z" fill="#FFB7B7"/>
<path d="M135.951 248.439L150.099 242.39L150.1 242.39C152.491 241.368 155.19 241.338 157.603 242.308C160.017 243.277 161.946 245.166 162.968 247.558L163.093 247.852L139.928 257.754L135.951 248.439Z" fill="#2F2E41"/>
<path d="M105.821 112.318L106.386 121.478L89.8731 123.247L72.5944 125.097L77.6799 111.187L105.821 112.318Z" fill="#FFB7B7"/>
<path d="M106.401 115.605C106.214 115.531 87.5625 108.271 76.1061 114.207L75.8243 114.353L73.5389 103.096L72.2366 78.8941L80.7107 74.8872L83.0439 69.6573L98.9361 68.7162L102.202 73.198L113.321 76.8445L106.675 115.713L106.401 115.605Z" fill="#E4E4E4"/>
<path d="M106.985 93.7589L108.951 78.3031L113.427 76.9399L113.502 76.9677C113.605 77.0057 116.038 77.9374 116.704 81.3074C117.343 84.542 122.157 104.671 122.205 104.874L122.253 105.075L110.944 109.604L106.985 93.7589Z" fill="#E4E4E4"/>
<path d="M132.967 244.703L148.022 241.613L123.96 175.171L115.725 152.508C115.725 152.508 110.501 134.338 108.142 127.306L106.717 117.871L73.0043 121.605C73.0043 121.605 63.5883 135.443 66.4488 157.997L65.155 242.772L80.2101 243.544L92.8204 158.045L114.953 204.915C114.953 204.915 121.929 224.916 126.92 229.251L132.967 244.703Z" fill="#2F2E41"/>
<path d="M86.524 124.752C86.2589 124.745 85.9937 124.76 85.7309 124.795L70.003 106.965L71.8325 101.485L63.9289 97.6415L59.7479 107.028C59.4101 107.786 59.3273 108.633 59.5118 109.443C59.6963 110.252 60.1382 110.98 60.7712 111.517L81.4003 129.008C81.243 130.018 81.3967 131.052 81.841 131.973C82.2853 132.893 82.9991 133.656 83.8875 134.161C84.7759 134.666 85.7968 134.888 86.8143 134.798C87.8319 134.707 88.7979 134.309 89.5839 133.656C90.3699 133.003 90.9387 132.127 91.2145 131.142C91.4903 130.158 91.46 129.113 91.1279 128.146C90.7957 127.18 90.1773 126.337 89.3549 125.731C88.5325 125.124 87.5451 124.783 86.524 124.752V124.752Z" fill="#FFB7B7"/>
<path d="M62.505 100.283L68.6537 82.7573C69.3447 80.6913 70.2106 79.4362 71.2274 79.0267C71.4277 78.9365 71.6445 78.8889 71.8641 78.8868C72.0838 78.8848 72.3014 78.9283 72.5034 79.0147L75.2605 82.5004L77.8193 93.2573L71.2585 108.7L62.505 100.283Z" fill="#E4E4E4"/>
<path d="M103.203 65.0895H76.2107C75.6555 65.0889 75.1231 64.8679 74.7305 64.475C74.3379 64.0821 74.1171 63.5495 74.1165 62.9939V51.3512C74.1165 47.2135 75.759 43.2453 78.6828 40.3195C81.6066 37.3937 85.5721 35.75 89.707 35.75C93.8419 35.75 97.8074 37.3937 100.731 40.3195C103.655 43.2453 105.298 47.2135 105.298 51.3512V62.9938C105.297 63.5495 105.076 64.0821 104.684 64.475C104.291 64.8679 103.759 65.0889 103.203 65.0895V65.0895Z" fill="#2F2E41"/>
<path d="M92.9107 64.8185C99.2236 64.8185 104.341 59.6974 104.341 53.3803C104.341 47.0631 99.2236 41.942 92.9107 41.942C86.5978 41.942 81.4802 47.0631 81.4802 53.3803C81.4802 59.6974 86.5978 64.8185 92.9107 64.8185Z" fill="#FFB7B7"/>
<path d="M108.986 52.5155H92.4806L92.3113 50.1442L91.465 52.5155H88.9236L88.5882 47.8156L86.9109 52.5155H81.9933V52.2826C81.997 49.0107 83.2975 45.8738 85.6095 43.5601C87.9215 41.2465 91.0563 39.9451 94.326 39.9414H96.6531C99.9228 39.9451 103.058 41.2465 105.37 43.5601C107.682 45.8737 108.982 49.0106 108.986 52.2826L108.986 52.5155Z" fill="#2F2E41"/>
<path d="M92.3455 67.2629C92.2212 67.2628 92.0972 67.2518 91.9748 67.2301L79.8889 65.0963V45.1082H93.1932L92.8638 45.4925C88.281 50.8408 91.7336 59.5132 94.1995 64.2067C94.3813 64.5504 94.4623 64.9386 94.4333 65.3264C94.4043 65.7142 94.2665 66.0859 94.0356 66.3988C93.8423 66.6663 93.5882 66.8841 93.2944 67.0343C93.0006 67.1846 92.6754 67.2629 92.3455 67.2629V67.2629Z" fill="#2F2E41"/>
<path d="M237.121 115.308C236.368 115.384 235.61 115.402 234.853 115.361C234.725 115.347 234.595 115.384 234.494 115.464C234.392 115.545 234.325 115.662 234.309 115.791L232.863 126.647C232.751 127.435 232.429 128.179 231.93 128.798C231.518 129.291 231.212 129.863 231.03 130.48C230.849 131.096 230.796 131.743 230.875 132.381V150.823C230.875 150.823 230.782 153.282 232.67 153.282C234.93 153.566 237.216 153.566 239.476 153.282C239.476 153.282 240.987 152.995 240.987 150.726V132.567C241.103 131.934 241.079 131.283 240.918 130.659C240.757 130.036 240.462 129.455 240.054 128.957C239.571 128.335 239.259 127.598 239.149 126.818L237.647 115.735C237.63 115.61 237.566 115.496 237.468 115.417C237.37 115.338 237.246 115.299 237.121 115.308V115.308Z" fill="white"/>
<path d="M236.066 153.805C234.924 153.805 233.783 153.734 232.65 153.593C232.397 153.599 232.145 153.552 231.911 153.456C231.676 153.36 231.464 153.217 231.288 153.035C230.519 152.236 230.562 150.869 230.564 150.811L230.564 132.4C230.484 131.723 230.543 131.036 230.736 130.383C230.93 129.729 231.255 129.122 231.691 128.598C232.153 128.024 232.452 127.334 232.555 126.604L234.001 115.749C234.029 115.541 234.137 115.351 234.303 115.221C234.468 115.09 234.678 115.03 234.887 115.052C235.622 115.09 236.358 115.073 237.09 114.998L237.099 114.998C237.303 114.983 237.505 115.046 237.664 115.175C237.823 115.304 237.927 115.489 237.955 115.692L239.457 126.777C239.561 127.502 239.851 128.187 240.3 128.766C240.732 129.294 241.045 129.91 241.217 130.571C241.39 131.232 241.417 131.922 241.298 132.595V150.726C241.298 153.224 239.551 153.584 239.533 153.587C238.383 153.732 237.225 153.805 236.066 153.805V153.805ZM234.811 115.67C234.765 115.668 234.719 115.683 234.684 115.713C234.648 115.742 234.624 115.784 234.618 115.83L233.171 126.688C233.052 127.533 232.707 128.33 232.172 128.993C231.787 129.454 231.501 129.989 231.331 130.565C231.161 131.141 231.111 131.746 231.184 132.342L231.186 132.381V150.823C231.186 150.845 231.153 151.999 231.737 152.605C231.858 152.728 232.004 152.824 232.165 152.887C232.325 152.95 232.498 152.978 232.67 152.97L232.709 152.973C234.943 153.253 237.203 153.253 239.437 152.973C239.466 152.965 240.676 152.689 240.676 150.726L240.681 132.512C240.789 131.922 240.767 131.317 240.617 130.737C240.467 130.157 240.193 129.617 239.813 129.154C239.295 128.488 238.96 127.698 238.841 126.862L237.338 115.776C237.332 115.731 237.309 115.689 237.273 115.66C237.238 115.631 237.193 115.616 237.147 115.618C236.379 115.695 235.607 115.713 234.837 115.672C234.828 115.671 234.82 115.67 234.811 115.67V115.67Z" fill="#3F3D56"/>
<path d="M234.838 132.711H237.13C238.042 132.711 238.916 133.073 239.561 133.718C240.205 134.363 240.567 135.238 240.567 136.15V144.781C240.567 145.693 240.205 146.568 239.561 147.213C238.916 147.858 238.042 148.22 237.13 148.22H234.838C233.926 148.22 233.052 147.858 232.408 147.213C231.763 146.568 231.401 145.693 231.401 144.781V136.15C231.401 135.238 231.763 134.363 232.408 133.718C233.052 133.073 233.926 132.711 234.838 132.711V132.711Z" fill="#F5D95F"/>
<path d="M159.329 100.355C158.575 100.431 157.817 100.448 157.061 100.408C156.932 100.394 156.803 100.431 156.701 100.511C156.599 100.591 156.533 100.708 156.517 100.837L155.07 111.694C154.959 112.482 154.637 113.225 154.137 113.845C153.726 114.338 153.419 114.91 153.238 115.526C153.057 116.143 153.004 116.79 153.083 117.427V135.869C153.083 135.869 152.989 138.328 154.878 138.328C157.137 138.612 159.424 138.612 161.683 138.328C161.683 138.328 163.195 138.042 163.195 135.773V117.614C163.31 116.98 163.286 116.329 163.125 115.706C162.964 115.082 162.67 114.502 162.262 114.003C161.779 113.382 161.467 112.645 161.357 111.865L159.854 100.781C159.837 100.657 159.773 100.543 159.676 100.464C159.578 100.385 159.454 100.346 159.329 100.355V100.355Z" fill="white"/>
<path d="M158.274 138.852C157.132 138.852 155.991 138.781 154.858 138.639C154.604 138.645 154.353 138.599 154.118 138.503C153.884 138.407 153.672 138.263 153.495 138.081C152.727 137.283 152.77 135.915 152.772 135.857L152.772 117.446C152.692 116.769 152.75 116.083 152.944 115.43C153.138 114.776 153.462 114.169 153.899 113.645C154.361 113.07 154.659 112.381 154.762 111.65L156.208 100.796C156.237 100.587 156.345 100.398 156.51 100.267C156.676 100.137 156.886 100.076 157.095 100.098C157.829 100.137 158.566 100.119 159.298 100.045L159.306 100.044C159.51 100.029 159.713 100.093 159.872 100.222C160.031 100.351 160.135 100.536 160.162 100.739L161.665 111.823C161.768 112.548 162.059 113.234 162.507 113.812C162.94 114.341 163.253 114.957 163.425 115.618C163.597 116.279 163.625 116.969 163.506 117.642V135.773C163.506 138.271 161.759 138.631 161.741 138.634C160.591 138.779 159.433 138.852 158.274 138.852V138.852ZM157.019 100.717C156.973 100.715 156.927 100.73 156.891 100.759C156.856 100.789 156.832 100.831 156.825 100.876L155.379 111.735C155.26 112.58 154.914 113.376 154.379 114.04C153.995 114.501 153.709 115.036 153.539 115.612C153.369 116.188 153.319 116.793 153.392 117.389L153.394 117.427V135.869C153.393 135.892 153.36 137.045 153.945 137.651C154.066 137.774 154.212 137.871 154.372 137.934C154.533 137.997 154.705 138.025 154.878 138.017L154.916 138.019C157.15 138.3 159.41 138.3 161.644 138.019C161.674 138.012 162.884 137.736 162.884 135.773L162.889 117.558C162.997 116.969 162.975 116.364 162.825 115.784C162.675 115.204 162.401 114.664 162.021 114.201C161.503 113.535 161.168 112.744 161.049 111.909L159.546 100.823C159.539 100.777 159.516 100.736 159.481 100.707C159.445 100.678 159.4 100.663 159.354 100.665C158.587 100.742 157.815 100.76 157.044 100.719C157.036 100.718 157.027 100.717 157.019 100.717V100.717Z" fill="#3F3D56"/>
<path d="M157.045 117.757H159.338C160.249 117.757 161.124 118.12 161.768 118.765C162.413 119.41 162.775 120.284 162.775 121.197V129.828C162.775 130.74 162.413 131.615 161.768 132.26C161.124 132.905 160.249 133.267 159.338 133.267H157.045C156.134 133.267 155.26 132.905 154.615 132.26C153.971 131.615 153.608 130.74 153.608 129.828V121.197C153.608 120.284 153.971 119.41 154.615 118.765C155.26 118.12 156.134 117.757 157.045 117.757V117.757Z" fill="#117049"/>
<path d="M146.143 84.5218C145.39 84.5977 144.632 84.6154 143.876 84.5747C143.747 84.5606 143.618 84.5977 143.516 84.6781C143.414 84.7584 143.348 84.8755 143.332 85.0042L141.885 95.8609C141.774 96.649 141.451 97.3923 140.952 98.0117C140.54 98.5047 140.234 99.0771 140.053 99.6934C139.872 100.31 139.819 100.957 139.898 101.594V120.036C139.898 120.036 139.804 122.495 141.692 122.495C143.952 122.779 146.238 122.779 148.498 122.495C148.498 122.495 150.01 122.209 150.01 119.94V101.781C150.125 101.148 150.101 100.496 149.94 99.873C149.779 99.2495 149.484 98.6686 149.077 98.1705C148.594 97.5487 148.282 96.8116 148.171 96.0321L146.669 84.9482C146.652 84.8236 146.588 84.7102 146.491 84.631C146.393 84.5518 146.269 84.5127 146.143 84.5218V84.5218Z" fill="white"/>
<path d="M145.089 123.019C143.947 123.019 142.806 122.948 141.672 122.806C141.419 122.812 141.167 122.766 140.933 122.67C140.699 122.574 140.487 122.43 140.31 122.249C139.542 121.45 139.585 120.082 139.587 120.024L139.587 101.613C139.506 100.936 139.565 100.25 139.759 99.5966C139.952 98.943 140.277 98.3359 140.713 97.8122C141.176 97.2373 141.474 96.5481 141.577 95.8174L143.023 84.9631C143.051 84.7543 143.16 84.5647 143.325 84.4345C143.491 84.3042 143.7 84.2436 143.91 84.2653C144.644 84.3041 145.381 84.2863 146.112 84.2121L146.121 84.2114C146.325 84.1965 146.527 84.2601 146.686 84.3891C146.846 84.5181 146.95 84.7029 146.977 84.9059L148.48 95.9904C148.583 96.7154 148.873 97.4009 149.322 97.9794C149.754 98.508 150.068 99.1238 150.24 99.7848C150.412 100.446 150.44 101.136 150.321 101.809V119.94C150.321 122.438 148.574 122.798 148.556 122.801C147.406 122.946 146.248 123.019 145.089 123.019V123.019ZM143.834 84.8842C143.787 84.882 143.742 84.897 143.706 84.9265C143.67 84.9559 143.647 84.9976 143.64 85.0435L142.194 95.9021C142.075 96.7467 141.729 97.5432 141.194 98.2072C140.81 98.6682 140.524 99.2032 140.354 99.7792C140.184 100.355 140.134 100.96 140.206 101.556L140.209 101.594V120.036C140.208 120.059 140.175 121.212 140.76 121.818C140.881 121.941 141.026 122.038 141.187 122.101C141.348 122.164 141.52 122.192 141.692 122.184L141.731 122.186C143.965 122.467 146.225 122.467 148.459 122.186C148.489 122.179 149.699 121.903 149.699 119.94L149.704 101.725C149.811 101.136 149.79 100.531 149.64 99.9507C149.49 99.3709 149.216 98.8307 148.836 98.3677C148.318 97.7016 147.983 96.9115 147.864 96.0758L146.361 84.99C146.354 84.9445 146.331 84.9031 146.296 84.8739C146.26 84.8447 146.215 84.8298 146.169 84.8321C145.402 84.9089 144.629 84.9268 143.859 84.8856C143.851 84.8847 143.842 84.8842 143.834 84.8842V84.8842Z" fill="#3F3D56"/>
<path d="M143.86 101.924H146.153C147.064 101.924 147.939 102.287 148.583 102.932C149.228 103.577 149.59 104.451 149.59 105.364V113.995C149.59 114.907 149.228 115.782 148.583 116.427C147.939 117.072 147.064 117.434 146.153 117.434H143.86C142.949 117.434 142.075 117.072 141.43 116.427C140.785 115.782 140.423 114.907 140.423 113.995V105.364C140.423 104.451 140.785 103.577 141.43 102.932C142.075 102.287 142.949 101.924 143.86 101.924Z" fill="#B71704"/>
<path d="M24.6947 31.2261C30.7629 31.2261 35.6823 26.3034 35.6823 20.231C35.6823 14.1585 30.7629 9.23587 24.6947 9.23587C18.6264 9.23587 13.707 14.1585 13.707 20.231C13.707 26.3034 18.6264 31.2261 24.6947 31.2261Z" fill="#F5D95F" fill-opacity="0.4"/>
<path d="M277.849 21.9902C283.918 21.9902 288.837 17.0675 288.837 10.9951C288.837 4.92267 283.918 0 277.849 0C271.781 0 266.862 4.92267 266.862 10.9951C266.862 17.0675 271.781 21.9902 277.849 21.9902Z" fill="#B71704" fill-opacity="0.45"/>
<path d="M152.151 49.6978C156.52 49.6978 160.062 46.1535 160.062 41.7814C160.062 37.4092 156.52 33.8649 152.151 33.8649C147.782 33.8649 144.24 37.4092 144.24 41.7814C144.24 46.1535 147.782 49.6978 152.151 49.6978Z" fill="#04508B" fill-opacity="0.75"/>
</g>
<defs>
<clipPath id="clip0_24_18">
<rect width="322" height="281" fill="white"/>
</clipPath>
</defs>
</svg>
